<svg width="12" height="17" viewBox="0 0 12 17" fill="none" xmlns="http://www.w3.org/2000/svg">
<path d="M10.886 9.59821L1.74311 0.455357C1.63597 0.339285 1.49311 0.285713 1.34133 0.285713C1.2699 0.285713 1.18954 0.303571 1.12704 0.330357C0.912755 0.419642 0.769897 0.624999 0.769897 0.857142V14.2857C0.769897 14.5179 0.912755 14.7232 1.12704 14.8125C1.18954 14.8393 1.2699 14.8571 1.34133 14.8571C1.49311 14.8571 1.63597 14.7946 1.74311 14.6875L4.52883 11.9018L6.23418 15.9375C6.35918 16.2232 6.68954 16.3661 6.98418 16.2411L8.56454 15.5714C8.85026 15.4464 8.99311 15.1161 8.86811 14.8214L7.07347 10.5714H10.4842C10.7163 10.5714 10.9217 10.4286 11.011 10.2143C11.1003 10.0089 11.0556 9.75893 10.886 9.59821Z" fill="white"/>
</svg>
