<svg width="15" height="17" viewBox="0 0 15 17" fill="none" xmlns="http://www.w3.org/2000/svg">
<path d="M13.2481 1.42857H14.1053C14.266 1.42857 14.391 1.30357 14.391 1.14286V0.571428C14.391 0.410714 14.266 0.285713 14.1053 0.285713H0.962426C0.801712 0.285713 0.676712 0.410714 0.676712 0.571428V1.14286C0.676712 1.30357 0.801712 1.42857 0.962426 1.42857H1.81957C1.81957 4.73214 3.39993 7.125 5.14993 8.28571C3.39993 9.44643 1.81957 11.8393 1.81957 15.1429H0.962426C0.801712 15.1429 0.676712 15.2679 0.676712 15.4286V16C0.676712 16.1607 0.801712 16.2857 0.962426 16.2857H14.1053C14.266 16.2857 14.391 16.1607 14.391 16V15.4286C14.391 15.2679 14.266 15.1429 14.1053 15.1429H13.2481C13.2481 11.8393 11.6678 9.44643 9.91778 8.28571C11.6678 7.125 13.2481 4.73214 13.2481 1.42857ZM12.1053 1.42857C12.1053 2.73214 11.8106 3.88393 11.3464 4.85714H3.72135C3.25707 3.88393 2.96243 2.73214 2.96243 1.42857H12.1053ZM11.5964 12.2857H3.47135C4.13207 10.5625 5.31957 9.33929 6.50707 8.85714H8.56064C9.74814 9.33929 10.9356 10.5625 11.5964 12.2857Z" fill="white"/>
</svg>
