<svg width="13" height="13" viewBox="0 0 13 13" fill="none" xmlns="http://www.w3.org/2000/svg">
<path d="M9.34911 8.66633C8.85969 8.56414 8.40967 8.37422 8.01293 8.10313C7.82055 7.967 7.54612 7.98363 7.34326 8.12794L6.18115 8.73944C5.35956 7.87524 4.95209 6.96011 4.80219 5.6405L5.80196 4.745C6.0326 4.58395 6.18603 4.30976 6.20238 4.02637C6.22689 3.45734 6.33442 2.87732 6.52214 2.30304C6.65483 1.89711 6.48178 1.5081 6.13642 1.43598L4.67485 1.13079C4.32949 1.05868 3.94048 1.33033 3.80779 1.73626C2.25965 6.47236 4.27849 11.0105 8.30782 11.8519C8.65317 11.924 9.04218 11.6523 9.17487 11.2464L9.73483 9.53339C9.86752 9.12746 9.69447 8.73845 9.34911 8.66633Z" fill="#FF7B5B"/>
</svg>
