<svg width="11" height="8" viewBox="0 0 11 8" fill="none" xmlns="http://www.w3.org/2000/svg">
<path fill-rule="evenodd" clip-rule="evenodd" d="M10.0738 0H0.926089C0.600038 0 0.341288 0.243068 0.292282 0.556051L5.49996 3.9871L10.7076 0.556051C10.6586 0.243068 10.3999 0 10.0738 0ZM0.272705 5.87529V1.32495L3.7972 3.64717L0.272705 5.87529ZM10.7273 5.87529L7.20277 3.64717L10.7273 1.32495V5.87529ZM5.67968 4.65089L6.60425 4.04191L10.7064 6.63595C10.656 6.94632 10.3986 7.18743 10.0739 7.18743H0.926125C0.601381 7.18743 0.343937 6.94632 0.293625 6.63595L4.39573 4.04126L5.3203 4.65089C5.37519 4.68683 5.43726 4.70447 5.49999 4.70447C5.56272 4.70447 5.62479 4.68683 5.67968 4.65089Z" fill="#FF7B5B"/>
</svg>
